<?xml version="1.0" encoding="UTF-8"?>
<svg width="34px" height="34px" viewBox="0 0 34 34" version="1.1" xmlns="http://www.w3.org/2000/svg" xmlns:xlink="http://www.w3.org/1999/xlink">
    <!-- Generator: Sketch 45.2 (43514) - http://www.bohemiancoding.com/sketch -->
    <title>Social-Icon/LinkedIn</title>
    <desc>Created with Sketch.</desc>
    <defs></defs>
    <g id="Pages" stroke="none" stroke-width="1" fill="none" fill-rule="evenodd">
        <g id="Pricing" transform="translate(-605.000000, -2015.000000)">
            <g id="Social-Icon/All" transform="translate(517.000000, 2015.000000)">
                <g id="Social-Icon/LinkedIn" transform="translate(88.000000, 0.000000)">
                    <circle id="Background" fill="#007BB5" cx="17" cy="17" r="17"></circle>
                    <path d="M12.5055845,14.7913004 L9.19084844,14.7913004 L9.19084844,24.7455533 L12.5055845,24.7455533 L12.5055845,14.7913004 Z M12.7165223,11.717636 C12.7064776,10.7433045 12.0033518,10 10.8683058,10 C9.74330446,10 9,10.7433045 9,11.717636 C9,12.6718782 9.71317049,13.435272 10.8281272,13.435272 L10.8482165,13.435272 C12.0033518,13.435272 12.7265669,12.6718782 12.7165223,11.717636 Z M17.6384032,16.2061419 L17.6384032,14.7913004 L14.3337117,14.7913004 C14.3337117,14.7913004 14.3738903,15.7254533 14.3337117,24.7455533 L17.6384032,24.7455533 L17.6384032,19.1908592 C17.6384032,18.8895195 17.6685371,18.5982245 17.7488944,18.3772421 C17.9899661,17.7846075 18.5323774,17.1718835 19.446441,17.1718835 C20.6417549,17.1718835 21.1238984,18.0859471 21.1238984,19.4218862 L21.1238984,24.7455533 L24.4285898,24.7455533 L24.4285898,19.0401893 C24.4285898,15.9866143 22.8013557,14.5602733 20.6216656,14.5602733 C18.8610928,14.5602733 18.0744617,15.5244756 17.6384032,16.2061419 L17.6384032,16.2061419 Z" id="LinkedIn" fill="#FFFFFF"></path>
                </g>
            </g>
        </g>
    </g>
</svg>