<?xml version="1.0" encoding="UTF-8"?>
<svg width="61px" height="25px" viewBox="0 0 61 25" version="1.1" xmlns="http://www.w3.org/2000/svg" xmlns:xlink="http://www.w3.org/1999/xlink">
    <!-- Generator: Sketch 45.2 (43514) - http://www.bohemiancoding.com/sketch -->
    <title>logo.</title>
    <desc>Created with Sketch.</desc>
    <defs></defs>
    <g id="Pages" stroke="none" stroke-width="1" fill="none" fill-rule="evenodd">
        <g id="Pricing" transform="translate(-102.000000, -26.000000)">
            <g id="Masthead">
                <rect id="BG" fill-opacity="0.9" fill="#FFFFFF" x="0" y="0" width="1200" height="70"></rect>
                <path d="M107.1125,45 L107.1125,26.45 L102.7875,26.45 L102.7875,45 L107.1125,45 Z M116.9375,31.375 C121.3375,31.375 124.2875,34.1 124.2875,38.25 C124.2875,42.4 121.3375,45.15 116.9375,45.15 C112.5125,45.15 109.5625,42.4 109.5625,38.25 C109.5625,34.1 112.5125,31.375 116.9375,31.375 Z M116.9375,34.8 C115.1375,34.8 113.9125,36.225 113.9125,38.3 C113.9125,40.4 115.1375,41.8 116.9375,41.8 C118.7125,41.8 119.9375,40.4 119.9375,38.3 C119.9375,36.225 118.7125,34.8 116.9375,34.8 Z M139.4875,31.525 L139.4875,43.775 C139.4875,47.6 136.5375,50.025 132.1875,50.025 C129.8375,50.025 127.7125,49.275 126.1875,48.25 L127.6875,45.325 C128.9125,46.175 130.4125,46.675 131.8625,46.675 C133.9375,46.675 135.1875,45.575 135.1875,43.9 L135.1875,42.475 C134.3125,43.625 132.9875,44.275 131.3125,44.275 C127.9125,44.275 125.5125,41.675 125.5125,37.75 C125.5125,33.925 127.8375,31.375 131.2125,31.375 C132.9375,31.35 134.2875,32 135.1875,33.175 L135.1875,31.525 L139.4875,31.525 Z M132.3875,41.15 C134.0625,41.15 135.1875,39.8 135.1875,37.875 C135.1875,35.9 134.0625,34.575 132.3875,34.575 C130.6875,34.575 129.5375,35.925 129.5375,37.875 C129.5375,39.8 130.6875,41.15 132.3875,41.15 Z M149.0375,31.375 C153.4375,31.375 156.3875,34.1 156.3875,38.25 C156.3875,42.4 153.4375,45.15 149.0375,45.15 C144.6125,45.15 141.6625,42.4 141.6625,38.25 C141.6625,34.1 144.6125,31.375 149.0375,31.375 Z M149.0375,34.8 C147.2375,34.8 146.0125,36.225 146.0125,38.3 C146.0125,40.4 147.2375,41.8 149.0375,41.8 C150.8125,41.8 152.0375,40.4 152.0375,38.3 C152.0375,36.225 150.8125,34.8 149.0375,34.8 Z M160.0125,41.025 C158.7875,41.025 157.9375,41.875 157.9375,43.1 C157.9375,44.35 158.7875,45.2 160.0125,45.2 C161.2375,45.2 162.1125,44.35 162.1125,43.1 C162.1125,41.875 161.2375,41.025 160.0125,41.025 Z" id="logo." fill="#000000"></path>
            </g>
        </g>
    </g>
</svg>