<?xml version="1.0" encoding="UTF-8"?>
<svg width="33px" height="33px" viewBox="0 0 33 33" version="1.1" xmlns="http://www.w3.org/2000/svg" xmlns:xlink="http://www.w3.org/1999/xlink">
    <!-- Generator: Sketch 45.2 (43514) - http://www.bohemiancoding.com/sketch -->
    <title>Icon - Tel Yellow</title>
    <desc>Created with Sketch.</desc>
    <defs>
        <linearGradient x1="50%" y1="0.556559019%" x2="50%" y2="100%" id="linearGradient-1">
            <stop stop-color="#F3323D" offset="0.0279017857%"></stop>
            <stop stop-color="#D62A33" offset="100%"></stop>
        </linearGradient>
    </defs>
    <g id="Pages" stroke="none" stroke-width="1" fill="none" fill-rule="evenodd">
        <g id="Pricing" transform="translate(-781.000000, -1676.000000)">
            <g id="Urgency" transform="translate(100.000000, 1638.000000)">
                <path d="M0,4.00418053 C0,1.79273269 1.79409524,0 4.00298037,0 L995.99702,0 C998.207805,0 1000,1.79386249 1000,4.00151562 L1000,55.3308378 L1000,103.998023 C1000,106.208254 998.205905,108 995.99702,108 L4.00298037,108 C1.79219536,108 0,106.215566 0,103.995819 L0,4.00418053 Z" id="Background" fill="url(#linearGradient-1)"></path>
                <g id="Icon---Tel-Yellow" transform="translate(681.000000, 38.000000)" fill="#FFFFFF">
                    <path d="M16.5,33 C7.38730163,33 0,25.6126984 0,16.5 C0,7.38730163 7.38730163,0 16.5,0 C25.6126984,0 33,7.38730163 33,16.5 C33,25.6126984 25.6126984,33 16.5,33 Z M25.9875,22.0851562 C25.9875,21.9621088 25.9743165,21.8698245 25.9479492,21.8083008 C25.8952146,21.6500969 25.5612335,21.417189 24.9459961,21.1095703 C24.7790031,21.0128901 24.5417008,20.8810555 24.234082,20.7140625 C23.9264633,20.5470695 23.6474134,20.3932624 23.3969238,20.2526367 C23.1464343,20.112011 22.9113292,19.9757819 22.6916016,19.8439453 C22.6564451,19.817578 22.546583,19.7406745 22.3620117,19.6132324 C22.1774405,19.4857904 22.0214362,19.3913089 21.8939941,19.3297852 C21.7665521,19.2682614 21.6413092,19.2375 21.5182617,19.2375 C21.3424796,19.2375 21.1227552,19.3627429 20.859082,19.6132324 C20.5954088,19.863722 20.353712,20.1361802 20.1339844,20.4306152 C19.9142567,20.7250503 19.6813489,20.9975085 19.4352539,21.247998 C19.1891589,21.4984876 18.9870125,21.6237305 18.8288086,21.6237305 C18.7497066,21.6237305 18.6508307,21.601758 18.5321777,21.5578125 C18.4135248,21.513867 18.3234378,21.4765138 18.2619141,21.445752 C18.2003903,21.4149901 18.0949226,21.3534673 17.9455078,21.2611816 C17.796093,21.168896 17.7125977,21.1183594 17.6950195,21.1095703 C16.4909119,20.4415982 15.4582074,19.6769574 14.596875,18.815625 C13.7355426,17.9542926 12.9709018,16.9215881 12.3029297,15.7174805 C12.2941406,15.6999023 12.243604,15.616407 12.1513184,15.4669922 C12.0590327,15.3175774 11.9975099,15.2121097 11.966748,15.1505859 C11.9359862,15.0890622 11.898633,14.9989752 11.8546875,14.8803223 C11.810742,14.7616693 11.7887695,14.6627934 11.7887695,14.5836914 C11.7887695,14.4254875 11.9140124,14.2233411 12.164502,13.9772461 C12.4149915,13.7311511 12.6874497,13.4982433 12.9818848,13.2785156 C13.2763198,13.058788 13.548778,12.8170912 13.7992676,12.553418 C14.0497571,12.2897448 14.175,12.0700204 14.175,11.8942383 C14.175,11.7711908 14.1442386,11.6459479 14.0827148,11.5185059 C14.0211911,11.3910638 13.9267096,11.2350595 13.7992676,11.0504883 C13.6718255,10.865917 13.594922,10.7560549 13.5685547,10.7208984 C13.4367181,10.5011708 13.300489,10.2660657 13.1598633,10.0155762 C13.0192376,9.76508664 12.8654305,9.48603669 12.6984375,9.17841797 C12.5314445,8.87079924 12.3996099,8.63349693 12.3029297,8.46650391 C11.995311,7.85126646 11.7624031,7.51728542 11.6041992,7.46455078 C11.5426755,7.43818346 11.4503912,7.425 11.3273438,7.425 C11.0900379,7.425 10.7802265,7.46894487 10.3979004,7.55683594 C10.0155743,7.644727 9.71455188,7.73701124 9.49482422,7.83369141 C9.0553689,8.01826264 8.58955324,8.55439009 8.09736328,9.44208984 C7.64911885,10.2682658 7.425,11.0856405 7.425,11.8942383 C7.425,12.1315442 7.44038071,12.3622547 7.47114258,12.586377 C7.50190445,12.8104992 7.55683554,13.0631822 7.6359375,13.3444336 C7.71503946,13.625685 7.77875952,13.8344231 7.82709961,13.9706543 C7.87543969,14.1068854 7.96552668,14.3507795 8.09736328,14.7023437 C8.22919988,15.053908 8.30830065,15.2692379 8.33466797,15.3483398 C8.64228669,16.2096723 9.00702914,16.9787076 9.42890625,17.6554687 C10.1232457,18.7804744 11.0702577,19.9428163 12.2699707,21.1425293 C13.4696837,22.3422423 14.6320256,23.2892543 15.7570313,23.9835937 C16.4337924,24.4054709 17.2028277,24.7702133 18.0641602,25.077832 C18.1432621,25.1041994 18.358592,25.1833001 18.7101563,25.3151367 C19.0617205,25.4469733 19.3056146,25.5370603 19.4418457,25.5854004 C19.5780769,25.6337405 19.786815,25.6974605 20.0680664,25.7765625 C20.3493178,25.8556645 20.6020008,25.9105955 20.826123,25.9413574 C21.0502453,25.9721193 21.2809558,25.9875 21.5182617,25.9875 C22.3268595,25.9875 23.1442342,25.7633811 23.9704102,25.3151367 C24.8581099,24.8229468 25.3942374,24.3571311 25.5788086,23.9176758 C25.6754888,23.6979481 25.767773,23.3969257 25.8556641,23.0145996 C25.9435551,22.6322735 25.9875,22.3224621 25.9875,22.0851562 Z" id="PHone"></path>
                </g>
            </g>
        </g>
    </g>
</svg>