<?xml version="1.0" encoding="UTF-8"?>
<svg width="34px" height="34px" viewBox="0 0 34 34" version="1.1" xmlns="http://www.w3.org/2000/svg" xmlns:xlink="http://www.w3.org/1999/xlink">
    <!-- Generator: Sketch 45.2 (43514) - http://www.bohemiancoding.com/sketch -->
    <title>Social-Icon/Twitter</title>
    <desc>Created with Sketch.</desc>
    <defs></defs>
    <g id="Pages" stroke="none" stroke-width="1" fill="none" fill-rule="evenodd">
        <g id="Pricing" transform="translate(-517.000000, -2015.000000)">
            <g id="Social-Icon/All" transform="translate(517.000000, 2015.000000)">
                <g id="Social-Icon/Twitter">
                    <circle id="Background" fill="#00ACED" cx="17" cy="17" r="17"></circle>
                    <path d="M24.830376,12.5267875 C24.247786,12.7779039 23.6149728,12.9587077 22.9620702,13.0290203 C23.6350621,12.6272341 24.1473395,11.9944208 24.3884112,11.2410717 C23.7656426,11.6127239 23.0625168,11.8839296 22.329257,12.0245548 C21.7366223,11.3917415 20.8928713,11 19.9587184,11 C18.1607252,11 16.7142949,12.456475 16.7142949,14.2444235 C16.7142949,14.4955399 16.7444289,14.7466563 16.7946521,14.987728 C14.1026847,14.8471028 11.7020121,13.561387 10.104912,11.5926346 C9.8236617,12.0747781 9.66294722,12.6272341 9.66294722,13.2299134 C9.66294722,14.3549147 10.2354925,15.3493355 11.1093775,15.9319255 C10.5770108,15.9118362 10.0747781,15.7611664 9.64285791,15.5200947 L9.64285791,15.5602733 C9.64285791,17.1372841 10.7578146,18.4430892 12.2444235,18.7444289 C11.9732178,18.8147415 11.6819228,18.8549201 11.3906278,18.8549201 C11.1796901,18.8549201 10.978797,18.8348308 10.7779039,18.8046968 C11.1897348,20.0904126 12.3850487,21.0245655 13.8113897,21.0546995 C12.696433,21.9285845 11.300226,22.4408619 9.78348308,22.4408619 C9.5122774,22.4408619 9.26116103,22.4308172 9,22.4006832 C10.4363856,23.3247915 12.143977,23.8571582 13.9821488,23.8571582 C19.9486738,23.8571582 23.2131866,18.915188 23.2131866,14.6261204 C23.2131866,14.4854952 23.2131866,14.3448701 23.2031419,14.2042449 C23.8359552,13.7421908 24.3884112,13.1696454 24.830376,12.5267875 Z" id="Twitter" fill="#FFFFFF"></path>
                </g>
            </g>
        </g>
    </g>
</svg>