<?xml version="1.0" encoding="UTF-8"?>
<svg width="34px" height="34px" viewBox="0 0 34 34" version="1.1" xmlns="http://www.w3.org/2000/svg" xmlns:xlink="http://www.w3.org/1999/xlink">
    <!-- Generator: Sketch 45.2 (43514) - http://www.bohemiancoding.com/sketch -->
    <title>Social-Icon/YouTube</title>
    <desc>Created with Sketch.</desc>
    <defs></defs>
    <g id="Pages" stroke="none" stroke-width="1" fill="none" fill-rule="evenodd">
        <g id="Pricing" transform="translate(-649.000000, -2015.000000)">
            <g id="Social-Icon/All" transform="translate(517.000000, 2015.000000)">
                <g id="Social-Icon/YouTube" transform="translate(132.000000, 0.000000)">
                    <circle id="Background" fill="#BB0000" cx="17" cy="17" r="17"></circle>
                    <path d="M19.4821542,20.4955506 C19.4821542,20.0535858 19.3515736,19.8225587 19.0904126,19.8225587 C18.9397428,19.8225587 18.789073,19.8928713 18.6384032,20.0435411 L18.6384032,23.0669822 C18.789073,23.2176521 18.9397428,23.2879647 19.0904126,23.2879647 C19.3515736,23.2879647 19.4821542,23.0669822 19.4821542,22.6149728 L19.4821542,20.4955506 Z M22.8772475,20.5055953 C22.8772475,20.0535858 22.7265777,19.8225587 22.425238,19.8225587 C22.1238984,19.8225587 21.9732286,20.0535858 21.9732286,20.5055953 L21.9732286,20.9676494 L22.8772475,20.9676494 L22.8772475,20.5055953 Z M13.1741109,18.3158605 L13.1741109,24.0312691 L12.1696454,24.0312691 L12.1696454,18.3158605 L11.1149567,18.3158605 L11.1149567,17.371663 L14.248889,17.371663 L14.248889,18.3158605 L13.1741109,18.3158605 Z M16.0669715,24.0312691 L16.0669715,23.4888577 C15.7053639,23.9006886 15.3638457,24.1015817 15.0424167,24.1015817 C14.7511217,24.1015817 14.540184,23.9810458 14.4598267,23.7299295 C14.4096035,23.5792596 14.3794695,23.3482326 14.3794695,22.9966697 L14.3794695,19.0692096 L15.2734438,19.0692096 L15.2734438,22.725464 C15.2734438,22.9364017 15.2734438,23.0468929 15.2834884,23.0770269 C15.3035778,23.2176521 15.3738903,23.2879647 15.4944262,23.2879647 C15.67523,23.2879647 15.8660784,23.1473395 16.0669715,22.8660892 L16.0669715,19.0692096 L16.9609458,19.0692096 L16.9609458,24.0312691 L16.0669715,24.0312691 Z M20.3761284,22.5446602 C20.3761284,23.0067143 20.3560391,23.3381879 20.2857265,23.5491257 C20.1752353,23.9107333 19.924119,24.1015817 19.5725561,24.1015817 C19.2511271,24.1015817 18.9397428,23.9207779 18.6384032,23.5491257 L18.6384032,24.0312691 L17.7444289,24.0312691 L17.7444289,17.371663 L18.6384032,17.371663 L18.6384032,19.5513531 C18.9296981,19.1897455 19.2410824,19.0089417 19.5725561,19.0089417 C19.924119,19.0089417 20.1752353,19.1997901 20.2857265,19.5714424 C20.3560391,19.7723355 20.3761284,20.1038091 20.3761284,20.5658632 L20.3761284,22.5446602 Z M23.7712218,22.4442136 C23.7712218,22.7355086 23.7712218,22.9364017 23.7511325,23.0268036 C23.7310432,23.2276967 23.6506859,23.4085005 23.5401947,23.569215 C23.299123,23.9207779 22.9274708,24.1015817 22.455372,24.1015817 C21.9832732,24.1015817 21.6317103,23.9308226 21.3705493,23.5893043 C21.1797008,23.3482326 21.0792543,22.956491 21.0792543,22.4241243 L21.0792543,20.6863991 C21.0792543,20.1540323 21.1696562,19.7723355 21.3605046,19.5212191 C21.6216656,19.1797008 21.9732286,19.0089417 22.4352827,19.0089417 C22.8872921,19.0089417 23.2388551,19.1797008 23.5000161,19.5212191 C23.6808199,19.7723355 23.7712218,20.1540323 23.7712218,20.6863991 L23.7712218,21.7209985 L21.9732286,21.7209985 L21.9732286,22.5948835 C21.9732286,23.0569376 22.1238984,23.2879647 22.4352827,23.2879647 C22.6562651,23.2879647 22.7868456,23.1674288 22.8370689,22.9263571 C22.8471135,22.8761338 22.8571582,22.6752407 22.8571582,22.3136331 L23.7712218,22.3136331 L23.7712218,22.4442136 Z M17.6640716,13.2734438 C17.6640716,13.7354979 17.5334911,13.9765696 17.2321515,13.9765696 C16.9408565,13.9765696 16.8002313,13.7354979 16.8002313,13.2734438 L16.8002313,11.1640663 C16.8002313,10.7020121 16.9408565,10.4709851 17.2321515,10.4709851 C17.5334911,10.4709851 17.6640716,10.7020121 17.6640716,11.1640663 L17.6640716,13.2734438 Z M24.8861785,20.8169796 C24.8861785,19.6517996 24.8861785,18.4263517 24.6250174,17.3013504 C24.4442136,16.5078226 23.7913111,15.9252327 23.0178727,15.8348308 C21.1696562,15.6339377 19.3013504,15.6339377 17.4430892,15.6339377 C15.5848281,15.6339377 13.7165223,15.6339377 11.8783505,15.8348308 C11.0948674,15.9252327 10.4520095,16.5078226 10.261161,17.3013504 C10.0100447,18.4263517 10,19.6517996 10,20.8169796 C10,21.9721149 10,23.2076074 10.261161,24.3326088 C10.4419648,25.1261365 11.0948674,25.7087265 11.8683058,25.7890837 C13.7165223,26.0000215 15.5848281,26.0000215 17.4430892,26.0000215 C19.3013504,26.0000215 21.1696562,26.0000215 23.0178727,25.7890837 C23.7913111,25.7087265 24.434169,25.1261365 24.6250174,24.3326088 C24.8761338,23.2076074 24.8861785,21.9721149 24.8861785,20.8169796 Z M14.8616129,8 L14.1785764,10.6417442 L13.4654059,8 L12.4006725,8 C12.6116103,8.6227686 12.8325927,9.25558185 13.0535751,9.87835045 C13.375004,10.8125034 13.5758971,11.5156292 13.666299,12.0078173 L13.666299,14.7299187 L14.6707645,14.7299187 L14.6707645,12.0078173 L15.8861677,8 L14.8616129,8 Z M18.5781352,11.3448701 C18.5781352,10.8125034 18.4877333,10.4207618 18.2968849,10.1696454 C18.0457685,9.82812718 17.6942056,9.65736805 17.2321515,9.65736805 C16.780142,9.65736805 16.4285791,9.82812718 16.1774627,10.1696454 C15.9866143,10.4207618 15.8962124,10.8125034 15.8962124,11.3448701 L15.8962124,13.1026847 C15.8962124,13.6350514 15.9866143,14.0267929 16.1774627,14.2879539 C16.4285791,14.6294722 16.780142,14.8002313 17.2321515,14.8002313 C17.6942056,14.8002313 18.0457685,14.6294722 18.2968849,14.2879539 C18.4877333,14.0368376 18.5781352,13.6350514 18.5781352,13.1026847 L18.5781352,11.3448701 Z M21.9430946,9.71763598 L21.029031,9.71763598 L21.029031,13.5446495 C20.8281379,13.8359445 20.6372895,13.9765696 20.4564857,13.9765696 C20.3359498,13.9765696 20.2656372,13.8962124 20.2455479,13.7555872 C20.2355033,13.7354979 20.2355033,13.6149621 20.2355033,13.4040243 L20.2355033,9.71763598 L19.3214397,9.71763598 L19.3214397,13.67523 C19.3214397,14.0368376 19.3515736,14.2779093 19.4017969,14.4285791 C19.4921988,14.6796955 19.7031366,14.8002313 19.9944316,14.8002313 C20.3259052,14.8002313 20.6674234,14.5993382 21.029031,14.1774627 L21.029031,14.7299187 L21.9430946,14.7299187 L21.9430946,9.71763598 Z" id="YouTube" fill="#FFFFFF"></path>
                </g>
            </g>
        </g>
    </g>
</svg>